<?xml version="1.0" ?><?xml-stylesheet type="text/css" href="css.css" ?><svg enable-background="new 0 0 52 52" id="Layer_1" version="1.1" viewBox="0 0 52 52" xml:space="preserve" xmlns="http://www.w3.org/2000/svg" xmlns:xlink="http://www.w3.org/1999/xlink"><g><g><g><path class="outline" d="M14.4016113,10.0042114l-4.4000244,4.5300293v27.4699707h27.3099976l4.6900024-5.6400146V10.0042114     H14.4016113z M40.0015869,35.6442261l-3.6300049,4.3599854H12.0015869V15.3442383l3.2399902-3.3400269h24.7600098V35.6442261z" fill="#0096E6"/></g></g><g><g><path class="outline" d="M33.0015869,16.5042114h-14c-1.6599731,0-3,1.3400269-3,3v14c0,1.6500244,1.3400269,3,3,3h14     c1.6500244,0,3-1.3499756,3-3v-14C36.0015869,17.8442383,34.6516113,16.5042114,33.0015869,16.5042114z M34.0015869,33.5042114     c0,0.5499878-0.4500122,1-1,1h-14c-0.5499878,0-1-0.4500122-1-1v-14c0-0.5599976,0.4500122-1,1-1h14c0.5499878,0,1,0.4400024,1,1     V33.5042114z" fill="#0096E6"/></g><g><path class="path-center" d="M34.0015869,19.5042114v14c0,0.5499878-0.4500122,1-1,1h-14c-0.5499878,0-1-0.4500122-1-1v-14     c0-0.5599976,0.4500122-1,1-1h14C33.5515747,18.5042114,34.0015869,18.9442139,34.0015869,19.5042114z" fill="#D0E8F9"/></g></g><g><g><g><g><rect class="wire" fill="#0096E6" height="2" width="7" x="42" y="17.5"/></g></g><g><g><rect class="wire" fill="#0096E6" height="2" width="7" x="42" y="22.5"/></g></g><g><g><rect class="wire" fill="#0096E6" height="2" width="7" x="42" y="27.5"/></g></g><g><g><rect class="wire" fill="#0096E6" height="2" width="7" x="42" y="32.5"/></g></g></g><g><g><g><rect class="wire" fill="#0096E6" height="2" width="7" x="3" y="17.5"/></g></g><g><g><rect class="wire" fill="#0096E6" height="2" width="7" x="3" y="22.5"/></g></g><g><g><rect class="wire" fill="#0096E6" height="2" width="7" x="3" y="27.5"/></g></g><g><g><rect class="wire" fill="#0096E6" height="2" width="7" x="3" y="32.5"/></g></g></g></g><g><g><g><g><rect class="wire" fill="#0096E6" height="7" width="2" x="32.5" y="3"/></g></g><g><g><rect class="wire" fill="#0096E6" height="7" width="2" x="27.5" y="3"/></g></g><g><g><rect class="wire" fill="#0096E6" height="7" width="2" x="22.5" y="3"/></g></g><g><g><rect class="wire" fill="#0096E6" height="7" width="2" x="17.5" y="3"/></g></g></g><g><g><g><rect class="wire" fill="#0096E6" height="7" width="2" x="32.5" y="42"/></g></g><g><g><rect class="wire" fill="#0096E6" height="7" width="2" x="27.5" y="42"/></g></g><g><g><rect class="wire" fill="#0096E6" height="7" width="2" x="22.5" y="42"/></g></g><g><g><rect class="wire" fill="#0096E6" height="7" width="2" x="17.5" y="42"/></g></g></g></g></g></svg>
